D:/PROGRAMMES/Krita (x64)/bin/ffmpeg.exe -hide_banner -y -y -r 11 -start_number 0 -start_number_range 1 -i C:/Users/asus/Downloads/hangman/assets/frame%04d.png -i C:/Users/asus/Downloads/hangman/assets/KritaTempPalettegen_%06d.png -lavfi [0:v][1:v]paletteuse=dither=sierra2_4a:diff_mode=none -f gif -loop 0 -gifflags +transdiff C:/Users/asus/Downloads/hangman/assets/2_lives.gif
=====================================================
Input #0, image2, from 'C:/Users/asus/Downloads/hangman/assets/frame%04d.png':
  Duration: 00:00:02.40, start: 0.000000, bitrate: N/A
  Stream #0:0: Video: png, rgba(pc), 1080x1080 [SAR 11811:11811 DAR 1:1], 25 fps, 25 tbr, 25 tbn, 25 tbc
Input #1, image2, from 'C:/Users/asus/Downloads/hangman/assets/KritaTempPalettegen_%06d.png':
  Duration: 00:00:00.04, start: 0.000000, bitrate: N/A
  Stream #1:0: Video: png, rgba(pc), 16x16 [SAR 1:1 DAR 1:1], 25 fps, 25 tbr, 25 tbn, 25 tbc
Stream mapping:
  Stream #0:0 (png) -> paletteuse:default
  Stream #1:0 (png) -> paletteuse:palette
  paletteuse -> Stream #0:0 (gif)
Press [q] to stop, [?] for help
[image2 @ 00000212c62ab2c0] Thread message queue blocking; consider raising the thread_queue_size option (current value: 8)
Output #0, gif, to 'C:/Users/asus/Downloads/hangman/assets/2_lives.gif':
  Metadata:
    encoder         : Lavf58.76.100
  Stream #0:0: Video: gif, pal8(pc, gbr/unknown/unknown, progressive), 1080x1080 [SAR 1:1 DAR 1:1], q=2-31, 200 kb/s, 11 fps, 100 tbn (default)
    Metadata:
      encoder         : Lavc58.134.100 gif
frame=    1 fps=0.0 q=-0.0 size=       0kB time=00:00:00.01 bitrate=   0.0kbits/s speed=0.274x    frame=   10 fps=0.0 q=-0.0 size=     160kB time=00:00:00.83 bitrate=1579.4kbits/s speed=1.53x    frame=   22 fps= 21 q=-0.0 size=     256kB time=00:00:01.92 bitrate=1092.3kbits/s speed=1.83x    frame=   34 fps= 22 q=-0.0 size=     512kB time=00:00:03.01 bitrate=1393.5kbits/s speed=1.94x    frame=   44 fps= 21 q=-0.0 size=     512kB time=00:00:03.92 bitrate=1070.0kbits/s speed=1.88x    frame=   56 fps= 22 q=-0.0 size=     768kB time=00:00:05.01 bitrate=1255.8kbits/s speed=1.94x    frame=   60 fps= 22 q=-0.0 Lsize=    1060kB time=00:00:05.37 bitrate=1617.5kbits/s speed=1.93x    
video:1060kB audio:0kB subtitle:0kB other streams:0kB global headers:0kB muxing overhead: 0.001842%
